<svg width="100" height="35" viewBox="0 0 100 35" fill="none" xmlns="http://www.w3.org/2000/svg">
<path d="M51.225 32.965C50.905 33.315 50.39 33.6 49.68 33.82C48.98 34.04 48.28 34.15 47.58 34.15C46.19 34.15 45.025 33.705 44.085 32.815C43.145 31.915 42.675 30.74 42.675 29.29C42.675 28.53 42.835 27.75 43.155 26.95C43.475 26.15 44 25.475 44.73 24.925C45.46 24.375 46.44 24.1 47.67 24.1C48.5 24.1 49.215 24.225 49.815 24.475C50.415 24.715 50.87 24.98 51.18 25.27L51.42 27.535L49.785 27.685L49.575 26.395C49.315 26.225 49 26.095 48.63 26.005C48.26 25.915 47.91 25.87 47.58 25.87C46.74 25.87 46.07 26.15 45.57 26.71C45.08 27.27 44.835 28.085 44.835 29.155C44.835 30.285 45.105 31.105 45.645 31.615C46.185 32.125 46.875 32.38 47.715 32.38C48.505 32.38 49.125 32.245 49.575 31.975L49.785 30.52L51.42 30.67L51.225 32.965ZM67.6734 34H63.7884V32.29H64.5684L64.2084 31.3H60.8934L60.4884 32.29H61.4034V34H57.5634V32.29H58.4484L61.2384 25.96H59.8884V24.25H63.2334L66.7434 32.29H67.6734V34ZM63.6684 29.86L62.6484 27.115H62.5584L61.4634 29.86H63.6684ZM82.4562 34H79.9662L78.0312 30.28H76.7112V32.29H77.7612V34H73.6512V32.29H74.7012V25.96H73.6512V24.25H78.0612C79.2712 24.25 80.2012 24.5 80.8512 25C81.5012 25.49 81.8262 26.225 81.8262 27.205C81.8262 27.865 81.6562 28.42 81.3162 28.87C80.9762 29.31 80.5262 29.64 79.9662 29.86L81.2862 32.29H82.4562V34ZM79.6662 27.25C79.6662 26.76 79.5212 26.425 79.2312 26.245C78.9412 26.055 78.4312 25.96 77.7012 25.96H76.7112V28.69H77.6712C78.4412 28.69 78.9662 28.565 79.2462 28.315C79.5262 28.065 79.6662 27.71 79.6662 27.25ZM97.3495 27.55L95.6395 27.7L95.3395 25.96H93.7945V32.29H95.3845V34H90.2845V32.29H91.7845V25.96H90.2395L89.9395 27.7L88.2295 27.55L88.5295 24.25H97.0495L97.3495 27.55Z" fill="#F26CEE"/>
<path d="M41.4961 18.0272C41.7025 18.0253 41.9088 18.0235 42.1215 18.0216C42.3516 18.0235 42.5818 18.0253 42.8119 18.0253C43.0563 18.0253 43.2992 18.0235 43.5436 18.0235C44.215 18.0198 44.8847 18.0216 45.5561 18.0216C46.2799 18.0235 47.0036 18.0216 47.7258 18.0198C49.1431 18.0161 50.5604 18.0161 51.9778 18.0161C53.13 18.0179 54.2807 18.0179 55.433 18.0161C55.5965 18.0161 55.76 18.0161 55.9282 18.0161C56.2615 18.0161 56.5932 18.0142 56.9265 18.0142C60.0469 18.0123 63.1657 18.0123 66.286 18.0161C69.1429 18.0179 71.9998 18.0142 74.8567 18.0105C77.7882 18.0049 80.7181 18.0049 83.6496 18.0049C85.2955 18.0068 86.9429 18.0049 88.5888 18.0031C89.9903 17.9994 91.3918 17.9994 92.7932 18.0031C93.509 18.0049 94.2248 18.0049 94.9407 18.0012C95.5946 17.9994 96.2485 17.9994 96.904 18.0031C97.1405 18.0049 97.3785 18.0031 97.615 18.0012C97.9372 17.9994 98.2578 18.0012 98.58 18.0049C98.7594 18.0049 98.9371 18.0049 99.1228 18.0049C99.5593 18.0977 99.5593 18.0977 99.8783 18.4056C100.035 18.8397 100.035 18.8397 99.9069 19.4426C99.845 19.6115 99.7815 19.7803 99.718 19.9528C92.1837 19.9621 84.6511 19.9676 77.1168 19.9713C76.228 19.9713 75.3392 19.9732 74.4504 19.9732C74.1853 19.9732 74.1853 19.9732 73.9139 19.9732C71.0459 19.9751 68.1795 19.9788 65.3115 19.9806C62.3705 19.9843 59.4295 19.9862 56.4885 19.988C54.6728 19.988 52.8571 19.9899 51.0413 19.9936C49.797 19.9955 48.5543 19.9955 47.3099 19.9955C46.5909 19.9955 45.8735 19.9955 45.1546 19.9973C44.4975 19.9992 43.8404 19.9992 43.1833 19.9973C42.9452 19.9973 42.7072 19.9973 42.4675 19.9992C42.1453 20.001 41.8231 19.9992 41.4993 19.9992C41.32 19.9992 41.1406 19.9992 40.9549 19.9992C40.5169 19.9528 40.5169 19.9528 40.0407 19.5818C39.9725 19.0679 39.9645 18.7822 40.2217 18.35C40.6486 17.9845 40.9692 18.0272 41.4961 18.0272Z" fill="#F1F1F1"/>
<path d="M87.3816 0.436965C87.7129 0.89402 87.6651 1.2908 87.6492 1.84831C87.5489 2.50292 87.2383 2.93654 86.794 3.40364C86.4754 3.41703 86.1569 3.42708 85.8384 3.43545C84.1167 3.56938 83.263 4.5287 82.1673 5.85466C82.0654 5.98525 81.9619 6.11583 81.8567 6.24977C81.758 6.36027 81.6593 6.47076 81.5573 6.58294C81.3312 6.92112 81.3312 6.92112 81.4825 7.33632C82.3505 9.03563 83.5004 10.7818 85.2013 11.6072C85.3892 11.706 85.3892 11.706 85.5804 11.8064C86.0916 11.9722 86.5821 12.0073 87.1141 12.0358C87.431 12.1095 87.431 12.1095 87.7495 12.6117C87.9932 12.1011 87.947 11.6675 87.9088 11.1049C87.7527 10.9342 87.5935 10.7667 87.431 10.6027C87.2829 9.76056 87.5712 9.24658 87.9757 8.55011C88.2273 8.2588 88.2273 8.2588 88.6159 8.13994C89.261 7.7984 89.3852 7.20574 89.6416 6.52266C89.7515 6.24642 89.863 5.97185 89.9745 5.69729C90.0557 5.49471 90.0557 5.49471 90.1401 5.28878C90.9922 3.25631 92.2982 1.39795 94.1201 0.222668C94.6043 0.0535742 94.9579 0.0217645 95.4643 0.0133935C95.6905 0.00669677 95.6905 0.00669678 95.9214 0C96.4215 0.0652936 96.6302 0.190858 96.9869 0.557507C97.1589 1.0966 97.186 1.53524 97.2147 2.10279C97.2322 2.41586 97.2322 2.41586 97.2497 2.73731C97.2561 2.84781 97.2608 2.9583 97.2672 3.07215C97.4599 8.20523 97.4599 8.20523 99.7788 12.5598C100.013 12.9466 100.013 12.9466 99.9907 13.4672C99.8075 14.1151 99.567 14.3813 99.0574 14.7882C98.4569 14.969 98.1113 15.0226 97.5252 14.7882C96.2193 13.633 95.8561 11.9738 95.5535 10.2678C95.4532 10.3231 95.3529 10.3767 95.2477 10.4336C94.582 10.6646 93.972 10.6445 93.2744 10.6345C93.1438 10.6345 93.0148 10.6345 92.8811 10.6345C92.0608 10.6278 91.2693 10.5591 90.457 10.4353C90.465 10.7651 90.465 10.7651 90.4746 11.1016C90.4793 11.3929 90.4825 11.6825 90.4873 11.9738C90.4921 12.1178 90.4953 12.2635 90.5 12.4125C90.508 13.2295 90.5001 13.797 89.9793 14.4533C89.425 14.8434 89.046 14.8936 88.3866 14.9556C88.2289 14.9003 88.0713 14.8451 87.9088 14.7882C87.7193 14.1922 87.7193 14.1922 87.5903 13.6162C87.4661 13.7786 87.3418 13.941 87.2128 14.1084C86.8577 14.5688 86.6602 14.7647 86.082 14.8401C84.4145 14.9154 83.4685 14.2943 82.2549 13.1458C81.6226 12.4476 81.1496 11.6792 80.683 10.8538C80.6161 10.7366 80.5492 10.6194 80.4807 10.4989C79.8723 9.37884 79.2894 8.14496 79.498 6.82569C80.2498 4.45838 82.8521 1.74116 84.8525 0.485517C85.6727 0.0619452 86.571 -0.2076 87.3816 0.436965ZM92.8842 4.08504C92.1883 5.07114 91.2534 6.48583 91.2534 7.75655C92.5673 7.75655 93.8812 7.75655 95.235 7.75655C95.4484 7.30786 95.4006 6.98139 95.3815 6.47914C95.3736 6.2933 95.3672 6.10579 95.3592 5.91326C95.3513 5.71738 95.3433 5.5215 95.3353 5.31892C95.3274 5.12304 95.321 4.92548 95.313 4.7229C95.3592 3.83391 95.3592 3.83391 95.0757 3.0688C94.0692 2.94658 93.5133 3.30821 92.8842 4.08504Z" fill="#F1F1F1"/>
<path d="M53.5528 0.212623C54.1628 0.949271 54.0927 1.72777 54.0704 2.65026C54.0688 2.80094 54.0672 2.95161 54.0656 3.10732C54.0529 3.87242 54.0226 4.63084 53.9509 5.3926C53.8634 6.3335 53.8426 7.27272 53.8315 8.21697C53.8283 8.36765 53.8251 8.51833 53.8219 8.67236C53.8172 9.61158 53.9127 10.2695 54.3491 11.0949C55.421 11.9873 56.3702 12.0325 57.6937 11.932C58.4247 11.7462 58.9742 11.3779 59.4456 10.7601C60.7117 8.55683 60.6417 5.30721 60.0826 2.89134C59.925 2.55483 59.7673 2.21999 59.6048 1.88682C59.6048 1.29081 59.7498 1.06814 60.0922 0.589318C60.5971 0.184162 60.9029 0.0452034 61.5272 0C61.8346 0.0452034 61.8346 0.0452034 62.3028 0.411853C63.3093 1.85501 62.7551 4.17211 62.5449 5.81952C62.5019 6.15603 62.4621 6.49087 62.4222 6.82739C62.1961 8.63385 61.962 10.38 61.0876 11.9739C60.9889 12.158 60.8901 12.3422 60.7882 12.5314C60.7133 12.6653 60.6369 12.7993 60.5604 12.9365C60.4553 12.9365 60.3502 12.9365 60.2419 12.9365C60.2116 13.0303 60.183 13.1224 60.1527 13.2195C59.5953 14.1621 58.6477 14.5856 57.6634 14.8619C56.0357 15.1683 54.6167 14.9824 53.1849 14.1286C52.2245 13.3317 51.8566 12.5096 51.6416 11.2623C51.5699 10.1523 51.6098 9.03566 51.6321 7.92399C51.7706 4.90875 51.7706 4.90875 51.0045 2.05424C50.9249 1.56203 50.9249 1.56203 51.0045 1.04972C51.8343 0.177465 52.4013 -0.0904068 53.5528 0.212623Z" fill="#F1F1F1"/>
<path d="M47.1646 0.0016742C47.2745 0.0016742 47.386 0 47.4991 0C47.8176 0 48.1362 0 48.4563 0C48.735 0 48.735 0 49.0201 0.0016742C49.4772 0.0200903 49.8817 0.0569227 50.3197 0.189184C50.5554 0.684746 50.549 0.97773 50.4789 1.52854C50.1397 2.06931 49.7622 2.57659 49.2048 2.8679C48.7716 2.88129 48.3432 2.88464 47.9116 2.87962C47.7906 2.87794 47.6711 2.87794 47.5469 2.87627C47.2506 2.87459 46.9544 2.87125 46.6566 2.8679C46.5801 3.5493 46.5037 4.22902 46.4288 4.90874C46.4065 5.09793 46.3858 5.28711 46.3635 5.48299C45.7265 9.16622 45.7265 9.16622 46.5977 12.59C46.8159 12.9131 46.8159 12.9131 46.9066 13.4053C46.8015 13.9996 46.6056 14.2374 46.1438 14.5923C45.5242 14.9489 44.9684 14.9907 44.2979 14.7865C43.9491 14.5873 43.9491 14.5873 43.6306 14.2524C43.3996 13.0989 43.5382 12.0442 43.6911 10.8839C43.7357 10.5106 43.7819 10.1356 43.8265 9.76224C43.8599 9.49436 43.8599 9.49436 43.8918 9.2198C44.1323 7.15384 44.2071 5.10295 43.9491 3.03532C42.667 3.01188 41.4041 3.08387 40.1268 3.20274C39.9213 2.3355 39.9404 1.76795 40.372 0.982753C40.9311 0.286288 41.7051 0.234387 42.5253 0.12389C44.067 -0.0100452 45.6182 0.00669678 47.1646 0.0016742Z" fill="#F1F1F1"/>
<path d="M74.6941 0.0978579C75.027 0.362382 75.1544 0.511386 75.2404 0.943329C75.242 1.88925 75.1098 2.37979 74.5349 3.11142C74.2482 3.41278 73.7879 3.31567 73.4009 3.33074C71.5359 3.47807 70.6998 4.53282 69.4783 5.94584C69.1231 6.4029 68.9511 6.67747 69.0005 7.27683C69.3954 8.0185 69.8748 8.65637 70.394 9.30596C70.5007 9.4399 70.6074 9.57551 70.7173 9.71447C71.7525 10.9852 72.7145 11.7486 74.3358 11.8909C74.4568 11.8976 74.5779 11.9043 74.7021 11.911C75.0127 11.9847 75.0127 11.9847 75.3312 12.4869C75.3312 13.2922 75.0541 13.8548 74.5444 14.434C73.8548 14.9162 73.0904 14.8124 72.3052 14.6634C71.3337 14.3135 70.5883 13.8112 69.9162 12.9892C69.8318 12.8971 69.7474 12.805 69.6598 12.7096C68.4001 11.2932 67.1721 9.33108 67.032 7.34715C67.1339 5.0853 69.6057 2.76821 71.0996 1.3284C72.216 0.322201 73.2305 -0.238656 74.6941 0.0978579Z" fill="#F1F1F1"/>
<path d="M77.8731 0C78.4321 0.210949 78.5547 0.329817 78.8478 0.857189C78.9051 1.28913 78.9051 1.28913 78.9003 1.77465C78.9003 1.95211 78.8987 2.13125 78.8987 2.31542C78.8955 2.50125 78.8924 2.68541 78.8892 2.87795C78.8876 3.05876 78.886 3.23957 78.886 3.42708C78.878 4.24744 78.8541 5.0544 78.7634 5.86974C78.6758 6.7872 78.6885 7.69629 78.7012 8.61542C78.7044 8.77279 78.706 8.93017 78.7076 9.09089C78.7172 9.74718 78.7251 10.4035 78.7411 11.0597C78.7506 11.5419 78.757 12.0258 78.7618 12.5079C78.7665 12.6569 78.7713 12.8059 78.7761 12.9583C78.7793 13.9829 78.7793 13.9829 78.3095 14.5103C77.9033 14.748 77.6262 14.8635 77.1659 14.9104C77.0481 14.9255 76.9286 14.9422 76.8076 14.9573C76.341 14.9087 76.1435 14.7748 75.8217 14.4182C75.7787 14.0549 75.7787 14.0549 75.8329 13.6029C75.852 13.422 75.8727 13.2396 75.8918 13.0537C75.9571 12.5916 76.0256 12.1329 76.1021 11.6725C76.3871 9.86772 76.5114 8.09642 76.5193 6.2682C76.5209 6.05557 76.5241 5.84462 76.5257 5.62698C76.5209 4.53205 76.4445 3.58111 76.0957 2.54645C75.9316 2.0442 75.8775 1.55198 75.8217 1.02461C77.0353 0.0284614 77.0353 0.0284614 77.8731 0Z" fill="#F1F1F1"/>
<path d="M65.945 0.137418C66.3049 0.420358 66.41 0.584429 66.5151 1.04651C66.5979 2.1699 66.5517 3.20455 66.4227 4.31957C66.2874 5.60034 66.2428 6.85934 66.2603 8.1468C66.2619 8.31254 66.2651 8.47829 66.2667 8.65073C66.2762 9.33213 66.289 10.0135 66.3065 10.6966C66.3176 11.2039 66.324 11.7095 66.3304 12.2168C66.3351 12.3708 66.3399 12.5248 66.3463 12.6822C66.3511 13.444 66.3431 13.7587 65.8844 14.3782C65.4703 14.7013 65.2474 14.8302 64.7409 14.8804C64.6215 14.8972 64.5036 14.9122 64.381 14.929C64.0338 14.8704 64.0338 14.8704 63.6643 14.6159C63.2868 14.0299 63.3904 13.5662 63.4955 12.9032C63.513 12.776 63.5305 12.6487 63.548 12.5181C63.6277 11.9238 63.7184 11.3328 63.8092 10.7418C64.0242 9.21326 64.0672 7.70983 64.0736 6.16454C64.0752 5.95527 64.0768 5.74432 64.0784 5.52835C64.0736 4.32962 64.0688 3.20288 63.5369 2.11465C63.3458 1.70112 63.3458 1.43158 63.3967 0.974518C64.1182 0.167553 64.9177 -0.229232 65.945 0.137418Z" fill="#F1F1F1"/>
<path d="M5.17632 0.0661966C5.32485 0.0648125 5.4746 0.0620444 5.62803 0.0606604C5.79128 0.0592764 5.95576 0.0592764 6.12024 0.0578923C6.20371 0.0565083 6.28595 0.0565083 6.37187 0.0565083C6.81253 0.0537402 7.25319 0.0509721 7.69385 0.0495881C8.14433 0.048204 8.59481 0.0440519 9.04529 0.0385157C9.39512 0.0343636 9.74494 0.0329795 10.0948 0.0329795C10.3403 0.0315955 10.5845 0.0288274 10.83 0.0246753C12.3153 0.0288274 13.7391 0.36515 15.0611 1.15405C15.1814 1.22464 15.1814 1.22464 15.3041 1.29523C16.0971 1.76857 16.7992 2.35679 17.4927 2.9976C17.5872 2.90902 17.6805 2.82044 17.7775 2.72909C19.761 0.902158 21.9472 0.00114658 24.5175 0.0122189C24.6893 0.0122189 24.8624 0.0108349 25.0342 0.00945083C25.3926 0.00806679 25.7498 0.00945083 26.107 0.0108349C26.5649 0.013603 27.0227 0.00945083 27.4793 0.0052987C27.8341 0.00253062 28.1888 0.00253062 28.5435 0.00391466C28.7117 0.00391466 28.8811 0.00253062 29.0493 0.00114658C29.2849 -0.00162151 29.5194 0.00114658 29.7538 0.00391466C29.9539 0.00391466 29.9539 0.00391466 30.1577 0.00391466C30.5038 0.0911093 30.5038 0.0911094 30.7923 0.416359C31.0377 0.860637 31.0525 1.11807 31.0427 1.63708C31.0414 1.79763 31.0402 1.95818 31.0377 2.12288C31.0316 2.37201 31.0316 2.37201 31.0255 2.62529C31.023 2.79414 31.0218 2.96161 31.0193 3.136C31.0132 3.55121 31.0046 3.96643 30.9948 4.38164C31.0844 4.37749 31.1728 4.37334 31.2648 4.37057C31.6711 4.35534 32.0774 4.34704 32.4837 4.33735C32.6236 4.33181 32.7636 4.32628 32.9084 4.32074C34.0745 4.30137 34.0745 4.30137 34.5225 4.71243C34.9092 5.21483 34.9386 5.44182 34.9423 6.0937C34.9423 6.25148 34.9435 6.40926 34.9448 6.57119C34.946 6.83278 34.946 6.83278 34.946 7.09852C34.9472 7.28121 34.9484 7.4639 34.9497 7.65213C34.9534 8.25834 34.9546 8.86455 34.9558 9.47076C34.957 9.67837 34.9583 9.88736 34.9583 10.0964C34.9607 10.9641 34.9632 11.8319 34.9644 12.6997C34.9669 13.944 34.9705 15.1882 34.9779 16.4311C34.9828 17.3058 34.9853 18.1805 34.9853 19.0553C34.9865 19.577 34.9877 20.1002 34.9914 20.622C34.9951 21.1133 34.9963 21.606 34.9951 22.0974C34.9939 22.3631 34.9975 22.6289 35 22.896C34.9926 24.197 34.9926 24.197 34.6391 24.6316C34.3089 24.8655 34.3089 24.8655 33.8646 24.8655C33.2975 24.6759 33.2975 24.6758 33.0815 24.3118C32.9612 23.8814 32.944 23.4897 32.944 23.0399C32.944 22.8226 32.944 22.8226 32.944 22.5998C32.944 22.442 32.944 22.2828 32.9452 22.1195C32.9452 21.9521 32.9452 21.7846 32.9452 21.6116C32.9452 21.1535 32.9452 20.6953 32.9465 20.2358C32.9477 19.757 32.9477 19.2767 32.9477 18.7978C32.9477 17.8899 32.9489 16.982 32.9501 16.074C32.9514 15.0402 32.9526 14.0077 32.9526 12.9738C32.9538 10.8479 32.9563 8.722 32.9587 6.59611C32.3106 6.59611 31.6625 6.59611 30.9948 6.59611C30.9997 6.87707 31.0034 7.15941 31.0083 7.44868C31.0107 7.7241 31.0132 7.99814 31.0157 8.27218C31.0169 8.4618 31.0193 8.65279 31.023 8.84241C31.0267 9.11645 31.0292 9.39049 31.0304 9.66314C31.0341 9.91089 31.0341 9.91089 31.0365 10.1628C30.9911 10.6555 30.8929 10.9102 30.6265 11.3019C30.2743 11.5095 30.2743 11.5095 29.8901 11.5787C29.5304 11.3946 29.3095 11.1994 29.0308 10.8866C29.0014 10.5213 29.0014 10.5213 29.0026 10.0548C29.0026 9.79325 29.0026 9.79324 29.0026 9.52612C29.0038 9.33374 29.0063 9.14275 29.0075 8.95175C29.0075 8.7566 29.0075 8.56145 29.0075 8.3663C29.0088 7.85282 29.0112 7.33934 29.0137 6.82586C29.0161 6.30131 29.0173 5.77675 29.0186 5.2522C29.0223 4.22386 29.0259 3.19552 29.0308 2.16717C28.341 2.17963 27.6512 2.19485 26.9613 2.21008C26.7281 2.21561 26.4937 2.22115 26.2592 2.2253C23.9811 2.26821 21.9778 2.47858 19.9697 3.80449C19.7021 3.96643 19.7021 3.96643 19.4566 3.96643C19.4566 4.05777 19.4566 4.14912 19.4566 4.24324C19.248 4.38026 19.248 4.38026 19.0344 4.52004C18.7619 4.7664 18.6183 4.95325 18.5508 5.34493C18.5164 5.78367 18.5053 6.21826 18.5078 6.65977C18.5078 7.30889 18.4833 7.72687 18.1064 8.25696C17.7517 8.45626 17.5172 8.44657 17.1245 8.39536C16.7832 8.11717 16.5414 7.90264 16.4678 7.41684C16.4628 7.08191 16.4702 6.74974 16.48 6.41341C16.4727 5.51932 16.4727 5.51932 16.2051 4.69305C15.9142 4.38579 15.6343 4.18234 15.2833 3.96643C15.2096 3.91937 15.1347 3.87231 15.0586 3.82249C12.0968 1.96095 9.54364 2.26821 5.95454 2.16717C5.95454 9.42924 5.95454 16.6913 5.95454 24.1734C7.73681 24.1734 9.51909 24.1734 11.3554 24.1734C13.5881 24.6758 15.4846 25.3374 17.2472 26.9415C17.2472 27.0329 17.2472 27.1242 17.2472 27.2183C17.3258 27.2557 17.4043 27.2917 17.4853 27.3304C17.7382 27.4951 17.7382 27.4951 17.8609 27.9104C17.9824 27.956 18.104 28.0017 18.2292 28.0488C18.4783 28.4141 18.4747 28.6273 18.4673 29.0951C18.3519 29.5712 18.3519 29.5712 18.0917 29.848C17.6032 30.039 17.3749 30.0279 16.879 29.848C16.6212 29.5961 16.3941 29.3248 16.1621 29.0439C14.4547 27.0869 12.1213 26.5263 9.78422 26.5C9.59028 26.4986 9.59028 26.4986 9.39266 26.4973C9.11403 26.4931 8.83416 26.4889 8.55553 26.4848C8.11978 26.4793 7.68403 26.4737 7.24828 26.471C6.82481 26.4668 6.40256 26.4599 5.97908 26.453C5.84775 26.453 5.71763 26.453 5.58261 26.4516C5.46232 26.4502 5.3408 26.4474 5.2156 26.4447C5.10881 26.4447 5.00202 26.4433 4.89278 26.4419C4.53681 26.3741 4.36988 26.2578 4.11334 25.9727C3.97832 25.527 3.97586 25.1063 3.97586 24.6371C3.97586 24.4779 3.97586 24.3188 3.97586 24.1555C3.97586 23.9811 3.97586 23.8067 3.97709 23.6281C3.97709 23.4427 3.97709 23.2572 3.97709 23.0717C3.97709 22.568 3.97709 22.0655 3.97832 21.5618C3.97955 21.0358 3.97955 20.5099 3.97955 19.9839C3.97955 18.9874 3.98077 17.9909 3.982 16.9958C3.98323 15.8609 3.98446 14.7274 3.98446 13.5938C3.98568 11.2603 3.98814 8.92822 3.99059 6.59611C3.34249 6.59611 2.69439 6.59611 2.02665 6.59611C2.02665 14.0409 2.02665 21.4856 2.02665 29.156C5.06462 29.156 8.1026 29.156 11.2326 29.156C13.3512 29.7927 13.3512 29.7927 14.0177 30.3407C14.0877 30.3947 14.1564 30.4473 14.2289 30.5027C14.4191 30.6494 14.6057 30.8016 14.7923 30.9552C14.8892 31.03 14.9862 31.1061 15.0869 31.1836C15.1519 31.2445 15.217 31.3068 15.2833 31.3705C15.2833 31.4618 15.2833 31.5532 15.2833 31.6473C15.3495 31.6777 15.4146 31.7096 15.4833 31.7414C15.7742 31.9241 15.7742 31.9241 16.0578 32.2867C16.5856 32.7891 17.2251 32.7351 17.883 32.7088C18.7815 32.5303 19.3314 31.8992 19.9795 31.2182C21.4611 29.6695 23.1611 29.0799 25.157 29.0951C25.2871 29.0923 25.4172 29.0896 25.5522 29.0868C25.74 29.0868 25.74 29.0868 25.9315 29.0868C26.0997 29.0868 26.0997 29.0868 26.2715 29.0868C26.668 29.1768 26.8153 29.3608 27.0669 29.7096C27.1369 29.9864 27.1369 29.9864 27.1356 30.2632C27.1393 30.3546 27.1418 30.4459 27.1442 30.54C27.0141 31.0051 26.8275 31.1296 26.4532 31.3705C26.0137 31.4466 25.578 31.448 25.1336 31.448C23.6987 31.4549 22.3129 31.7594 21.2524 32.9386C21.1039 33.1171 21.1039 33.1171 20.9529 33.2984C20.1992 34.1911 19.1633 34.9233 18.0475 34.9967C16.5844 35.0285 15.5545 34.8499 14.424 33.7233C14.2853 33.5628 14.1466 33.4009 14.0104 33.2389C12.9216 31.9808 11.5861 31.4812 10.0579 31.4577C9.75231 31.4549 9.44544 31.4549 9.13857 31.4563C8.80839 31.4577 8.4782 31.4563 8.14801 31.4535C7.21023 31.448 6.27122 31.448 5.33344 31.448C4.75776 31.448 4.18085 31.4452 3.60517 31.441C3.28112 31.4397 2.95584 31.4411 2.63179 31.4438C2.43172 31.4424 2.23287 31.441 2.03279 31.4397C1.94319 31.441 1.85358 31.441 1.76152 31.4424C1.14042 31.4327 0.780777 31.268 0.308204 30.8168C0.0074755 30.3186 0.0307973 29.8522 0.0295698 29.2612C0.0295698 29.1601 0.0283426 29.0591 0.0283426 28.9553C0.0271151 28.6162 0.0271148 28.2771 0.0271148 27.9394C0.0258874 27.6958 0.0258873 27.4536 0.0246598 27.21C0.0222049 26.5512 0.0222049 25.891 0.0222049 25.2309C0.0209774 24.6814 0.0209778 24.1305 0.0197503 23.5797C0.0172954 22.2801 0.0172954 20.9805 0.0172954 19.6822C0.0172954 18.3411 0.0148401 17.0013 0.0111577 15.6616C0.00747528 14.5101 0.00624818 13.3599 0.00624818 12.2098C0.00624818 11.5219 0.00624812 10.834 0.00379319 10.1476C0.00133827 9.50121 0.001338 8.85486 0.00256547 8.20852C0.00256547 7.97185 0.00256567 7.73379 0.00133821 7.49712C-0.00111672 7.17325 0.000110541 6.84939 0.00256547 6.52552C0.00256547 6.34421 0.00133821 6.1629 0.00133821 5.97606C0.0737585 5.40168 0.232101 5.10549 0.553697 4.65845C0.977172 4.34012 1.13183 4.34842 1.62895 4.35396C1.83517 4.35534 1.83517 4.35534 2.04506 4.35673C2.25987 4.36088 2.25987 4.36088 2.47959 4.36365C2.69685 4.36642 2.69685 4.36642 2.91779 4.3678C3.27498 4.37057 3.6334 4.3761 3.99059 4.38164C3.98937 4.28061 3.98691 4.17819 3.98446 4.07438C3.97709 3.61488 3.97218 3.15399 3.96727 2.69449C3.96482 2.53533 3.96113 2.37616 3.95868 2.21146C3.95745 2.05783 3.95623 1.9042 3.955 1.74504C3.95254 1.60387 3.95132 1.4627 3.94886 1.31737C4.05074 0.351309 4.38338 0.0745008 5.17632 0.0661966Z" fill="#C000F1"/>
<path d="M21.8658 8.74099C21.9946 8.74238 22.1235 8.74238 22.2573 8.74376C24.4852 8.80051 26.3755 9.92711 27.9184 11.7167C29.3693 13.5076 30.0518 15.7636 30.0333 18.1677C29.9732 19.2002 29.8235 20.2825 29.4319 21.225C29.2453 21.7426 29.2453 21.7426 29.3914 22.2354C29.6013 22.5302 29.6013 22.5302 29.8726 22.818C29.9744 22.9329 30.0775 23.0464 30.1819 23.1627C30.2936 23.2845 30.404 23.4063 30.5182 23.5322C30.6913 23.7246 30.8643 23.9183 31.0386 24.1107C31.4044 24.5176 31.7714 24.9232 32.1397 25.3287C32.4416 25.6622 32.7424 25.9972 33.0431 26.3321C33.269 26.5826 33.4948 26.8331 33.7219 27.0823C33.825 27.1971 33.9281 27.3106 34.0337 27.4297C34.1245 27.5293 34.2153 27.629 34.3074 27.7314C34.8819 28.4912 34.9837 29.1611 34.9567 30.1285C34.8806 30.8856 34.6842 31.3742 34.1883 31.8946C33.5316 32.4482 32.913 32.6765 32.0918 32.6156C30.8214 32.361 29.9045 30.9991 29.0391 30.0164C28.8893 29.8489 28.8893 29.8489 28.7371 29.6759C28.4229 29.3216 28.1099 28.9659 27.7957 28.6102C27.5821 28.368 27.3673 28.1258 27.1525 27.8836C26.6308 27.2926 26.1079 26.7016 25.5862 26.1107C25.5114 26.1397 25.4352 26.1674 25.3567 26.1965C25.2585 26.2338 25.1591 26.2712 25.056 26.31C24.9578 26.3473 24.8596 26.3847 24.7577 26.4221C22.968 27.0947 21.1293 27.2276 19.3261 26.5259C19.1481 26.4594 19.1481 26.4594 18.9653 26.393C16.9755 25.5681 15.3675 23.7993 14.4789 21.6499C13.5644 19.1753 13.5718 16.6411 14.4604 14.1581C15.5075 11.6655 17.2308 10.0627 19.4869 9.10499C20.2836 8.80466 21.0299 8.73546 21.8658 8.74099ZM18.0987 12.4087C17.9722 12.5111 17.8458 12.6135 17.7157 12.7201C16.5557 13.9713 15.888 15.52 15.8475 17.3165C15.8278 19.3732 16.0868 20.9482 17.3622 22.5122C17.4236 22.5966 17.4849 22.681 17.5475 22.7696C18.3712 23.8284 19.8024 24.6034 21.0446 24.7266C22.9558 24.8664 24.5331 24.4443 26.0257 23.0464C27.0199 21.9848 27.8337 20.4707 27.9381 18.8929C27.9442 18.5455 27.9479 18.1981 27.9491 17.8493C27.9516 17.7303 27.954 17.6113 27.9565 17.4895C27.9614 16.6438 27.8313 15.9587 27.5502 15.1768C27.5158 15.0813 27.4814 14.9844 27.4458 14.8861C26.8198 13.2184 25.4389 11.9893 23.9868 11.3264C23.2896 11.0413 22.6661 10.9541 21.9271 10.9638C21.7663 10.9651 21.7663 10.9651 21.6019 10.9679C20.2308 11.0067 19.185 11.4759 18.0987 12.4087ZM27.9184 23.7578C27.5772 24.1467 27.5772 24.1467 27.3047 24.5882C27.3562 25.0879 27.5219 25.2802 27.862 25.5889C28.4192 26.1148 28.9323 26.6795 29.4454 27.2608C29.5338 27.3604 29.6221 27.4587 29.713 27.5611C29.7964 27.6552 29.8799 27.7507 29.9671 27.8476C30.0419 27.9334 30.1168 28.0179 30.1954 28.1064C30.3734 28.3251 30.3734 28.3251 30.4961 28.6019C30.5771 28.6019 30.6581 28.6019 30.7416 28.6019C30.8226 28.7846 30.9036 28.9673 30.9871 29.1555C31.0681 29.1555 31.1491 29.1555 31.2326 29.1555C31.2731 29.2926 31.3136 29.4296 31.3553 29.5708C31.8905 30.1687 31.8905 30.1687 32.5828 30.4012C32.7043 30.3098 32.8258 30.2185 32.951 30.1244C33.0308 29.7299 33.0308 29.7299 32.951 29.294C32.7092 28.9023 32.7092 28.9023 32.3692 28.5466C32.3103 28.4801 32.2502 28.4137 32.1888 28.3459C32.0636 28.2061 31.9384 28.0677 31.8107 27.9307C31.6168 27.7189 31.4241 27.5058 31.2326 27.2912C30.6974 26.5771 30.6974 26.5771 30.0051 26.2491C29.9646 26.112 29.9241 25.975 29.8824 25.8339C29.7056 25.6664 29.5276 25.4975 29.346 25.337C29.1398 25.1349 28.9777 24.9245 28.8083 24.6837C28.7175 24.5605 28.6267 24.4374 28.5322 24.3114C28.4511 24.3114 28.3701 24.3114 28.2867 24.3114C28.2056 24.1287 28.1246 23.946 28.0412 23.7578C28.0007 23.7578 27.9602 23.7578 27.9184 23.7578Z" fill="#C000F1"/>
</svg>
